<svg xmlns="http://www.w3.org/2000/svg" viewBox="0 0 1200 760" role="img" aria-label="Clash Verge cover">
  <defs>
    <linearGradient id="bg" x1="0" y1="0" x2="1200" y2="760" gradientUnits="userSpaceOnUse">
      <stop stop-color="#07111f"/>
      <stop offset=".45" stop-color="#10263f"/>
      <stop offset="1" stop-color="#6d5dfc"/>
    </linearGradient>
    <linearGradient id="card" x1="210" y1="150" x2="980" y2="620" gradientUnits="userSpaceOnUse">
      <stop stop-color="#ffffff" stop-opacity=".94"/>
      <stop offset="1" stop-color="#eaf2ff" stop-opacity=".84"/>
    </linearGradient>
    <linearGradient id="accent" x1="220" y1="180" x2="980" y2="570" gradientUnits="userSpaceOnUse">
      <stop stop-color="#74f7d0"/>
      <stop offset=".52" stop-color="#7aa7ff"/>
      <stop offset="1" stop-color="#c084fc"/>
    </linearGradient>
    <filter id="shadow" x="-20%" y="-20%" width="140%" height="140%">
      <feDropShadow dx="0" dy="28" stdDeviation="28" flood-color="#020617" flood-opacity=".28"/>
    </filter>
  </defs>
  <rect width="1200" height="760" fill="url(#bg)"/>
  <circle cx="174" cy="128" r="210" fill="#74f7d0" opacity=".14"/>
  <circle cx="1048" cy="98" r="260" fill="#c084fc" opacity=".20"/>
  <circle cx="916" cy="665" r="210" fill="#7aa7ff" opacity=".18"/>
  <g filter="url(#shadow)">
    <rect x="190" y="118" width="820" height="520" rx="52" fill="url(#card)"/>
    <rect x="238" y="172" width="724" height="74" rx="24" fill="#0f172a" opacity=".92"/>
    <circle cx="282" cy="209" r="12" fill="#74f7d0"/>
    <circle cx="322" cy="209" r="12" fill="#7aa7ff"/>
    <circle cx="362" cy="209" r="12" fill="#c084fc"/>
    <rect x="270" y="304" width="280" height="32" rx="16" fill="#0f172a" opacity=".78"/>
    <rect x="270" y="362" width="520" height="22" rx="11" fill="#52637a" opacity=".32"/>
    <rect x="270" y="406" width="430" height="22" rx="11" fill="#52637a" opacity=".24"/>
    <rect x="270" y="470" width="168" height="58" rx="20" fill="url(#accent)"/>
    <rect x="472" y="470" width="188" height="58" rx="20" fill="#e8eef7"/>
    <path d="M780 312c48-54 118-50 154 0 42 58 15 144-61 168-88 27-161-88-93-168Z" fill="url(#accent)" opacity=".88"/>
    <path d="M782 451c45-28 102-28 147 0" fill="none" stroke="#fff" stroke-width="18" stroke-linecap="round" opacity=".85"/>
  </g>
</svg>
