<svg xmlns="http://www.w3.org/2000/svg" viewBox="0 0 512 512" role="img" aria-label="Clash Verge">
  <defs>
    <linearGradient id="bg" x1="118" y1="33" x2="394" y2="479" gradientUnits="userSpaceOnUse">
      <stop stop-color="#ff6eaf"/>
      <stop offset=".46" stop-color="#c35ff4"/>
      <stop offset="1" stop-color="#756dff"/>
    </linearGradient>
    <radialGradient id="shine" cx="0" cy="0" r="1" gradientUnits="userSpaceOnUse" gradientTransform="translate(179 85) rotate(52) scale(415)">
      <stop stop-color="#ff8fc7" stop-opacity=".85"/>
      <stop offset=".52" stop-color="#bd6cff" stop-opacity=".18"/>
      <stop offset="1" stop-color="#756dff" stop-opacity="0"/>
    </radialGradient>
  </defs>
  <circle cx="256" cy="256" r="256" fill="url(#bg)"/>
  <circle cx="256" cy="256" r="256" fill="url(#shine)"/>
  <path fill="#fff" d="M128.3 249.3c-7.8-74.9 3.2-121.1 19.4-127 18.6-6.8 56.2 31.1 77.2 52.6a128 128 0 0 1 62.2 0c21-21.5 58.6-59.4 77.2-52.6 16.2 5.9 27.2 52.1 19.4 127 11.1 21.8 17.7 37.1 12.4 51.8-20.2 56.2-78.2 89.6-140.1 89.6s-119.9-33.4-140.1-89.6c-5.3-14.7 1.3-30 12.4-51.8Z"/>
  <path fill="#a762ef" d="M223 305.5c-5.8 12.2-25.1 13.1-41.8 5.2-16.7-7.9-27.7-22.2-21.9-34.4 5.8-12.2 26.3-11.8 43-3.9 16.7 7.9 26.5 20.9 20.7 33.1Zm66 0c5.8 12.2 25.1 13.1 41.8 5.2 16.7-7.9 27.7-22.2 21.9-34.4-5.8-12.2-26.3-11.8-43-3.9-16.7 7.9-26.5 20.9-20.7 33.1Zm-55.4 29.2c4.2 10.1 14 17.5 22.4 17.5s18.2-7.4 22.4-17.5c2.4-5.8-10-8.9-22.4-8.9s-24.8 3.1-22.4 8.9Z"/>
</svg>
